PathFileType	4	(X/Y/Z)	C:/Users/opensim2020/Desktop/walking_exp_matlab/subject01_walking17_run.trc	
DataRate	CameraRate	NumFrames	NumMarkers	Units	OrigDataRate	OrigDataStartFrame	OrigNumFrames	
100.00	100.00	7	61	mm	100.00	281	87	
Frame#	Time	LTHI			LKNE			RELB			STRN			RWRA			LSHO			RFRM			RUPA			RSHO			RASI			RBHD			RFIN			LFHD			RFHD			CLAV			LHEE			RWRB			LASI			LBHD			LWRA			LTIB			RTHI			LWRB			LTOE			RKNE			C7			LFRM			LFIN			LUPA			LELB			RTIB			RTOE			RBAK			RANK			T10			LPSI			LANK			RHEE			RPSI			*39			*40			*41			*42			*43			*44			*45			*46			*47			*48			*49			*50			*51			*52			*53			*54			*55			*56			*57			*58			*59			*60			
		X1	Y1	Z1	X2	Y2	Z2	X3	Y3	Z3	X4	Y4	Z4	X5	Y5	Z5	X6	Y6	Z6	X7	Y7	Z7	X8	Y8	Z8	X9	Y9	Z9	X10	Y10	Z10	X11	Y11	Z11	X12	Y12	Z12	X13	Y13	Z13	X14	Y14	Z14	X15	Y15	Z15	X16	Y16	Z16	X17	Y17	Z17	X18	Y18	Z18	X19	Y19	Z19	X20	Y20	Z20	X21	Y21	Z21	X22	Y22	Z22	X23	Y23	Z23	X24	Y24	Z24	X25	Y25	Z25	X26	Y26	Z26	X27	Y27	Z27	X28	Y28	Z28	X29	Y29	Z29	X30	Y30	Z30	X31	Y31	Z31	X32	Y32	Z32	X33	Y33	Z33	X34	Y34	Z34	X35	Y35	Z35	X36	Y36	Z36	X37	Y37	Z37	X38	Y38	Z38	X39	Y39	Z39	X40	Y40	Z40	X41	Y41	Z41	X42	Y42	Z42	X43	Y43	Z43	X44	Y44	Z44	X45	Y45	Z45	X46	Y46	Z46	X47	Y47	Z47	X48	Y48	Z48	X49	Y49	Z49	X50	Y50	Z50	X51	Y51	Z51	X52	Y52	Z52	X53	Y53	Z53	X54	Y54	Z54	X55	Y55	Z55	X56	Y56	Z56	X57	Y57	Z57	X58	Y58	Z58	X59	Y59	Z59	X60	Y60	Z60	X61	Y61	Z61	

11	0.100	-532.12280	-1426.18616	690.81927	-508.91507	-1357.65417	579.55774	-128.70660	-1532.46118	1017.46307	-397.81436	-1449.40686	1144.85242	-301.16846	-1361.83228	1073.61633	-527.11469	-1520.79736	1360.88696	-208.21010	-1431.76855	1001.58423	-123.55419	-1536.15405	1146.63159	-224.67126	-1483.54224	1337.60095	-267.96878	-1598.02161	887.79401	-274.22299	-1548.05762	1562.19495	-318.86383	-1283.89063	1066.86206	-408.41278	-1471.06653	1628.50183	-298.25613	-1444.29810	1633.33545	-381.19220	-1449.83691	1305.78442	-421.17953	-1644.31799	243.98517	-285.28275	-1338.89001	1025.19458	-477.62961	-1578.76489	911.79205	-390.33450	-1573.39624	1562.02258	-721.29553	-1674.99072	988.79559	-520.70636	-1463.98425	427.61154	-224.67532	-1737.13672	572.77655	-754.06519	-1722.87695	991.89197	-485.11212	-1509.68762	117.39875	-251.68634	-1773.56274	415.00397	-357.29083	-1583.66968	1397.63159	-736.69684	-1744.02979	1110.95520	-771.66919	-1676.06177	924.85095	-626.53015	-1655.65588	1299.84985	-695.90295	-1768.64966	1228.11377	-248.23010	-1910.05591	305.79807	-323.02197	-1976.17297	22.08987	-275.38025	-1664.58655	1223.13245	-295.40445	-2048.60840	147.56258	-363.38785	-1692.33215	1131.68176	-442.26953	-1759.29517	942.04083	-476.47626	-1593.63721	242.28825	-344.48978	-2102.79858	157.30428	-299.82547	-1769.78967	939.93976	-3102.01831	1973.25427	1023.43408	-3140.61646	2012.46484	1021.93030				-315.10178	-1465.93945	1663.93872																																																						 
12	0.110	-530.95288	-1375.62866	706.09076	-508.74231	-1307.64124	592.48853	-133.36177	-1478.48352	1024.63232	-402.40350	-1404.09741	1151.52527	-308.11203	-1314.81958	1093.47644	-529.59088	-1476.84546	1367.15637	-215.98256	-1379.47192	1015.82776	-127.02650	-1483.61047	1154.38062	-229.59444	-1435.97144	1345.11316	-267.59482	-1549.72131	893.17029	-278.09311	-1503.04614	1568.19983	-328.88864	-1238.15234	1089.98853	-411.63617	-1425.47351	1634.72498	-301.99002	-1400.43750	1638.43811	-385.53064	-1404.26160	1312.32178	-419.55811	-1554.48486	225.12831	-295.28842	-1290.89856	1044.88269	-475.99734	-1530.05151	918.72192	-394.28479	-1528.07166	1568.61792	-723.87646	-1635.94983	1001.33655	-520.84833	-1398.20532	429.16663	-224.04193	-1697.43359	579.83295	-755.48676	-1684.50293	1004.53424	-477.66153	-1406.54980	112.20818	-249.78130	-1744.81323	426.14667	-359.61703	-1537.86011	1403.67322	-736.60480	-1704.69019	1124.50549	-775.36798	-1637.62048	937.61981	-627.34064	-1613.46399	1309.48389	-694.30939	-1728.50842	1240.02637	-244.45758	-1884.12598	320.39706	-321.71234	-1974.47778	22.22812	-273.62653	-1616.31702	1229.96997	-288.60941	-2021.83228	160.99857	-361.55688	-1646.35315	1137.50098	-440.73215	-1711.06763	947.64667	-475.08920	-1508.39160	241.47797	-339.17987	-2071.80444	176.70966	-298.57385	-1721.24170	944.03497	-3101.85083	1973.05737	1023.46130	-3140.71460	2012.56177	1022.13379	-474.22324	-1503.49585	228.59453	-318.34033	-1420.80298	1670.10803																																																						 
13	0.120	-529.92731	-1328.69226	714.66779	-509.07874	-1260.61902	600.71234	-136.66946	-1426.35815	1031.67847	-406.95670	-1358.58606	1157.98633	-313.23154	-1269.61890	1111.26489	-532.14728	-1432.78577	1373.02283	-221.77040	-1329.58569	1028.88416	-130.69534	-1432.24377	1161.92578	-234.31012	-1389.76489	1351.91821	-266.68719	-1501.11572	899.23230	-282.11963	-1458.16199	1574.14856	-337.82394	-1194.40649	1110.58118	-415.15488	-1379.88293	1640.42163	-306.01221	-1355.72021	1643.44165	-389.85693	-1358.83948	1319.05261	-418.24371	-1464.52539	207.65771	-302.63623	-1244.22925	1063.24597	-474.04129	-1481.20239	925.36823	-398.41214	-1482.79041	1574.95337	-725.22229	-1594.48669	1011.13611	-520.91705	-1334.33838	427.89038	-223.05310	-1656.20569	586.45703	-756.09528	-1643.40552	1014.02625	-470.60770	-1306.52673	108.87001	-248.03163	-1712.82678	437.55972	-362.20837	-1492.54297	1409.31226	-736.43506	-1663.21423	1135.13062	-777.30438	-1596.48486	947.44177	-628.69275	-1570.06714	1317.42126	-693.33838	-1686.34558	1249.53052	-240.19038	-1855.21204	333.54691	-322.85638	-1967.37329	27.39801	-272.46756	-1568.70984	1237.03284	-282.42740	-1991.63647	172.31422	-359.76724	-1599.40747	1142.80652	-439.59613	-1662.45117	953.60840	-473.62881	-1425.05811	237.83633	-332.82663	-2036.45178	196.19601	-298.41824	-1672.49036	949.59326	-3101.94336	1973.23718	1023.31396	-3140.65942	2012.52625	1022.03186				-322.60056	-1377.24658	1674.65845	-472.43082	-1413.94727	215.34447																																																			 
14	0.130	-530.19348	-1286.78455	715.54004	-509.91138	-1215.38306	604.21887	-138.45071	-1376.32202	1038.20825	-411.32434	-1312.78137	1164.09473	-317.02057	-1226.21716	1126.08105	-534.75146	-1388.78772	1378.03064	-225.70866	-1281.79041	1040.24622	-134.01413	-1382.10278	1168.88708	-238.87939	-1343.84387	1357.73901	-264.90726	-1452.00903	905.27478	-286.28226	-1413.60791	1579.53650	-344.99106	-1152.10034	1127.73535	-418.92941	-1334.41467	1645.22400	-309.86374	-1310.67224	1648.20679	-393.90155	-1313.93311	1325.46570	-416.65298	-1375.67285	192.25594	-307.81650	-1199.65247	1078.68140	-472.16858	-1432.14648	931.40967	-402.65402	-1437.66370	1580.48706	-725.53247	-1550.37646	1018.19568	-520.97699	-1272.05725	423.90344	-221.05144	-1615.61719	593.84479	-756.47809	-1600.27063	1020.35651	-464.27704	-1208.97217	106.50726	-246.54607	-1678.77637	448.35941	-364.92542	-1447.30469	1414.37000	-736.39850	-1620.06873	1142.22180	-777.68195	-1551.69189	953.33032	-630.60095	-1526.11792	1323.75195	-692.97668	-1642.77759	1256.40112	-237.62224	-1822.40198	345.53064	-321.28946	-1952.37256	39.24480	-272.18011	-1521.26184	1243.67065	-277.80753	-1961.76440	186.89265	-358.13852	-1552.28101	1147.46497	-438.72919	-1613.41162	959.17444	-472.15973	-1343.31042	231.48405	-326.20071	-2003.30310	214.77571	-299.05356	-1622.54688	955.34503	-3101.76685	1973.19556	1023.43457	-3140.72290	2012.56042	1022.08130	-470.61597	-1326.00452	203.00348	-326.23480	-1331.67651	1680.49683																																																						 
15	0.140	-530.37616	-1245.35608	713.84955	-511.15466	-1171.03467	603.52966	-138.74449	-1328.26697	1043.98877	-415.63019	-1266.85962	1169.70117	-319.47314	-1184.19250	1137.12817	-537.32593	-1344.84167	1381.97400	-227.40149	-1235.74817	1049.27588	-136.50464	-1333.42517	1175.31091	-243.41577	-1298.13855	1362.45496	-263.35254	-1403.27771	910.76678	-290.45865	-1369.03430	1583.80139	-350.33817	-1110.05005	1140.60291	-422.99771	-1289.41272	1649.00891	-313.57986	-1265.39001	1652.28613	-398.08603	-1269.66650	1330.67566	-414.64938	-1288.39502	179.00070	-311.72006	-1157.04321	1090.37646	-470.24591	-1383.24329	936.33527	-407.01370	-1393.21826	1584.89014	-725.61481	-1504.64221	1022.44733	-521.44983	-1211.18872	417.45889	-220.24939	-1573.75427	601.43158	-756.53223	-1554.60181	1023.77045	-459.61816	-1116.18604	105.34009	-246.43248	-1640.40808	457.31638	-367.68280	-1402.15820	1418.65417	-736.98328	-1575.61902	1145.92920	-776.71478	-1505.02832	956.11554	-633.12744	-1481.87085	1328.55176	-693.57477	-1598.27063	1259.71863	-235.98845	-1785.19556	356.00125	-318.54425	-1932.60718	53.09980	-272.70609	-1474.14026	1249.39539	-273.74591	-1928.96985	202.58179	-357.38428	-1505.15295	1151.18408	-438.09442	-1564.47900	964.32471	-471.10349	-1262.97546	222.67416	-320.07690	-1969.44141	233.43105	-299.60400	-1572.28235	961.33807	-3101.95337	1973.03308	1023.41718	-3140.68140	2012.50928	1022.14728				-329.93152	-1286.01636	1685.41821	-469.26538	-1240.90234	192.49164																																																			 
16	0.150	-530.06897	-1203.06567	710.60089	-511.97495	-1128.26636	599.13739	-137.85036	-1281.91296	1049.01526	-419.75723	-1220.99817	1174.58472	-321.05399	-1142.83191	1143.95935	-540.02283	-1301.19836	1384.81909	-227.74440	-1191.49695	1055.65332	-138.16924	-1286.06238	1180.82251	-247.46582	-1252.39343	1366.18237	-262.26804	-1354.69141	915.11438	-294.63974	-1324.57373	1587.16553	-354.85458	-1069.97668	1148.32910	-427.30396	-1244.83240	1652.37842	-317.81891	-1221.18604	1655.35974	-401.63879	-1224.93799	1335.82141	-412.47662	-1204.80444	167.99252	-314.45554	-1115.33606	1097.33618	-468.57486	-1334.76978	940.21320	-411.31851	-1348.49548	1588.21326	-725.38690	-1457.04504	1023.97827	-522.30792	-1152.19165	408.78680	-219.35460	-1530.98682	608.81348	-756.42627	-1506.91125	1023.92487	-456.81799	-1028.23743	105.46562	-247.30003	-1596.14648	462.86258	-370.49686	-1357.10571	1421.90295	-737.66370	-1529.95398	1146.06775	-775.08893	-1456.58569	956.21606	-636.32434	-1437.40515	1331.53333	-695.12445	-1553.31519	1260.08765	-235.72481	-1742.84961	364.87823	-313.76349	-1907.89417	68.98392	-273.74323	-1427.61462	1253.57385	-270.87003	-1894.81567	218.91136	-357.88583	-1458.00903	1154.16016	-437.58881	-1515.61755	968.88562	-470.43246	-1184.51184	211.63666	-316.32959	-1934.08301	251.96957	-299.85089	-1521.84216	967.22528	-3101.94507	1973.14856	1023.47198	-3140.77979	2012.55017	1022.11194	-468.02896	-1159.24377	182.91943	-334.39734	-1240.95032	1689.09778																																																						 
17	0.160	-529.96991	-1160.29553	705.61493	-512.64752	-1086.88184	591.65216	-136.03842	-1237.26367	1053.58325	-423.34045	-1175.09045	1178.62000	-321.73337	-1102.20801	1146.64807	-542.98010	-1257.65942	1386.56873	-227.13394	-1148.77002	1059.31970	-138.97551	-1239.83105	1185.27979	-251.02974	-1206.58130	1369.14185	-261.89563	-1306.16846	918.53430	-298.85672	-1280.14722	1589.88245	-358.11313	-1029.57104	1150.50769	-431.35504	-1200.18689	1655.31030	-321.79810	-1176.93372	1658.39575	-405.48853	-1180.21729	1339.48035	-409.90054	-1124.52393	158.18779	-315.87012	-1074.67261	1099.79114	-467.56241	-1286.36499	942.70013	-415.56897	-1304.18127	1591.01929	-724.58929	-1407.48157	1022.61023	-523.19666	-1095.91187	398.54877	-218.62215	-1485.94006	614.96210	-756.04822	-1457.36646	1021.19867	-455.64075	-945.89221	106.73312	-248.66376	-1548.40723	464.55240	-373.43185	-1312.39929	1424.23035	-738.71130	-1483.19788	1143.13342	-772.59583	-1404.64758	952.95300	-640.16528	-1392.81775	1332.41504	-697.32507	-1507.87097	1257.07813	-235.52350	-1698.82605	372.72446	-309.23837	-1877.54797	84.81539	-275.28738	-1381.89990	1255.78638	-269.06964	-1859.29358	235.41182	-358.94943	-1411.50159	1156.79663	-437.17300	-1466.57117	972.91138	-469.79218	-1108.76538	199.03320	-315.40939	-1897.98450	268.89758	-299.73434	-1471.49902	973.00732	-3102.03149	1973.16443	1023.43079	-3140.81860	2012.40955	1022.11127				-338.85492	-1196.17944	1691.78992	-466.86124	-1082.15710	174.63657																																																			 
